<?xml version="1.0" encoding="UTF-8" standalone="no"?>
<svg xmlns="http://www.w3.org/2000/svg" viewBox="0 0 1024 768" version="1.1">
  <g fill="currentColor" stroke="none" transform="matrix(1.0171,0,0,1.0171,-8.756,-6.567)">
    <path d="m 260.3,341.57 v 84.859 h 10.757 v -65.616 l 19.004,33.944 5.737,-9.8006 -24.143,-43.386 z m 72.907,0 -30.836,55.099 -5.6174,9.8006 2.6294,4.6613 h 6.0955 l 28.207,-50.318 v 65.616 h 10.757 v -84.859 z" />
    <path d="m 408.53,353.16 -4.6613,12.669 10.757,27.37 h -21.28 l -3.227,8.3664 h 26.892 l 10.04,24.86 h 11.474 z m -4.6613,-11.593 h -9.0835 l -34.78,84.859 h 10.996 l 28.31,-72.43 z" />
    <path d="m 476.52,369.18 -20.08,-27.61 h -11.952 l 26.175,35.378 z m 43.386,-27.609 h -11.832 l -25.816,35.378 -5.8565,7.6493 -30.956,41.832 h 11.952 l 24.86,-34.183 24.86,34.183 h 11.832 l -30.956,-41.832 z" />
    <path d="m 545.46,351.13 h 45.776 v -9.5616 h -56.533 v 26.294 h 10.757 z m -10.757,65.736 v 9.5616 h 57.609 v -9.5616 z m 10.757,-29.282 h 39.8 v -8.964 h -50.557 v 27.49 h 10.757 z" />
    <path d="m 655.61,393.92 c 2.6294,-0.5976 5.1394,-1.7928 7.2907,-3.4661 2.1514,-1.5538 4.0637,-3.4661 5.6174,-5.737 1.5538,-2.1514 2.749,-4.6613 3.5856,-7.4102 0.83664,-2.749 1.3147,-5.6174 1.3147,-8.6054 0,-3.3466 -0.71712,-6.5736 -1.9123,-9.8006 -1.3147,-3.227 -3.1075,-6.0955 -5.3784,-8.725 -2.2709,-2.6294 -5.0198,-4.6613 -8.1274,-6.215 -3.1075,-1.5538 -6.5736,-2.3904 -10.279,-2.3904 h -36.334 v 84.859 h 10.757 v -30.48 h 10.757 l -5.976,-9.5616 h -4.7808 v -35.26 h 24.98 c 2.0318,0 3.9442,0.47808 5.8565,1.4342 1.9123,0.95616 3.4661,2.1514 4.9003,3.8246 1.4342,1.6733 2.5099,3.4661 3.3466,5.6174 0.83664,2.1514 1.3147,4.4222 1.3147,6.6931 0,2.3904 -0.35856,4.5418 -1.0757,6.6931 -0.83664,2.2709 -1.7928,4.0637 -2.988,5.737 -1.3147,1.6733 -2.8685,2.988 -4.6613,3.8246 -1.7928,0.95616 -3.8246,1.4342 -5.976,1.4342 h -9.4421 l 6.215,9.5616 19.362,30.478 h 12.191 z" />
    <path d="m 733.7,353.16 -4.6613,12.669 10.757,27.37 h -21.275 l -3.227,8.3664 h 26.892 l 10.04,24.86 h 11.474 z m -4.6613,-11.593 h -9.0835 l -34.78,84.859 h 10.996 l 28.326,-72.429 z" />
  </g>
</svg>
